<?xml version="1.0" standalone="no"?>
<!DOCTYPE svg PUBLIC "-//W3C//DTD SVG 20010904//EN"
 "http://www.w3.org/TR/2001/REC-SVG-20010904/DTD/svg10.dtd">
<svg version="1.0" xmlns="http://www.w3.org/2000/svg"
 width="747.000000pt" height="217.000000pt" viewBox="0 0 747.000000 217.000000"
 preserveAspectRatio="xMidYMid meet">

<g transform="translate(0.000000,217.000000) scale(0.100000,-0.100000)"
fill="#000000" stroke="none">
<path d="M1050 1615 l0 -115 85 0 85 0 0 50 c0 28 3 50 8 50 4 1 39 30 77 65
l70 64 -162 1 -163 0 0 -115z"/>
<path d="M300 1222 l0 -419 77 -6 c42 -3 81 -4 85 -1 4 3 8 19 8 36 l0 30 37
-28 c106 -81 239 -69 338 30 65 65 89 129 89 236 -1 135 -79 257 -185 289 -88
27 -208 5 -249 -44 -14 -16 -15 -3 -20 136 l-5 154 -87 3 -88 3 0 -419z m410
-20 c25 -24 41 -51 45 -76 15 -77 -32 -156 -103 -176 -145 -40 -241 158 -127
259 31 27 43 31 92 31 51 0 58 -3 93 -38z"/>
<path d="M5048 1633 l-58 -4 0 -420 0 -420 88 3 87 3 5 66 c5 60 9 70 47 113
l42 48 77 -116 77 -116 100 0 c82 0 98 2 94 14 -3 8 -56 90 -117 181 l-111
166 98 105 c93 100 119 132 111 138 -1 2 -48 0 -103 -2 l-100 -5 -105 -115
-105 -115 -5 239 -5 239 -30 1 c-16 0 -56 -1 -87 -3z"/>
<path d="M1668 1396 c-26 -7 -62 -25 -82 -39 l-35 -27 -3 30 -3 31 -87 2 -88
3 0 -303 0 -304 85 3 85 3 3 175 c2 156 4 179 23 210 32 55 98 76 157 49 51
-23 57 -51 57 -253 l0 -186 90 0 90 0 0 203 c0 228 -10 283 -60 341 -55 62
-146 86 -232 62z"/>
<path d="M3051 1399 c-158 -31 -259 -163 -249 -327 9 -166 136 -286 303 -286
103 -1 167 25 236 93 71 72 94 132 87 236 -6 85 -31 145 -86 199 -47 48 -93
71 -167 85 -65 12 -63 12 -124 0z m143 -180 c38 -30 56 -71 56 -130 0 -63 -26
-110 -74 -133 -98 -46 -197 20 -198 132 0 93 55 152 143 152 32 0 55 -7 73
-21z"/>
<path d="M6820 1396 c-152 -32 -243 -147 -244 -307 0 -63 5 -86 28 -132 112
-230 460 -229 573 1 36 74 39 191 6 263 -61 135 -212 208 -363 175z m144 -175
c64 -36 87 -147 43 -212 -79 -119 -258 -63 -257 81 1 122 110 190 214 131z"/>
<path d="M2235 1384 c-54 -20 -119 -86 -146 -148 -32 -72 -32 -190 0 -264 67
-152 262 -209 389 -115 l32 24 0 -41 c0 -61 -24 -98 -77 -122 -68 -30 -157
-13 -218 43 -20 17 -21 17 -73 -33 l-53 -50 35 -32 c59 -56 120 -79 222 -84
130 -6 193 14 259 81 77 79 78 87 82 445 l4 313 -88 -3 -88 -3 -5 -34 c-5 -32
-6 -33 -20 -16 -42 51 -170 70 -255 39z m199 -148 c50 -21 80 -70 80 -132 0
-84 -57 -144 -138 -144 -145 0 -188 206 -56 272 42 22 70 22 114 4z"/>
<path d="M3691 1386 c-47 -17 -106 -69 -135 -119 -49 -84 -53 -224 -11 -309
73 -143 260 -193 383 -101 l32 24 0 -43 c0 -61 -28 -102 -85 -124 -41 -15 -55
-16 -103 -6 -49 10 -66 18 -118 57 -10 7 -26 -2 -61 -38 -57 -56 -54 -65 28
-115 70 -42 107 -52 200 -52 112 0 172 21 234 83 80 81 85 110 85 465 l0 292
-85 0 -85 0 0 -37 c0 -34 -1 -35 -18 -20 -56 51 -181 72 -261 43z m193 -150
c94 -39 113 -167 36 -241 -28 -26 -38 -30 -91 -30 -57 0 -63 2 -94 37 -89 96
-32 238 98 247 10 0 32 -5 51 -13z"/>
<path d="M4470 1391 c-83 -26 -150 -82 -191 -161 -35 -65 -34 -204 0 -274 32
-64 82 -113 150 -145 45 -20 71 -25 136 -26 71 0 88 4 147 33 107 52 159 132
166 253 6 109 -15 168 -87 240 -68 67 -124 89 -225 88 -39 0 -82 -4 -96 -8z
m186 -183 c77 -72 59 -216 -31 -254 -102 -42 -195 23 -195 135 0 97 48 151
136 151 47 0 59 -4 90 -32z"/>
<path d="M5721 1371 c-23 -22 -31 -38 -31 -64 0 -77 39 -120 109 -120 49 0 87
26 101 69 37 110 -95 194 -179 115z"/>
<path d="M6109 1372 c-72 -37 -103 -94 -95 -171 9 -91 59 -135 191 -167 122
-29 159 -61 113 -98 -32 -26 -110 -16 -195 23 -36 17 -66 31 -68 31 -1 0 -19
-27 -38 -60 l-36 -60 22 -15 c87 -56 234 -86 329 -66 110 23 168 86 168 181 0
101 -53 153 -192 190 -46 12 -93 28 -106 37 -31 19 -26 55 8 63 35 9 125 -7
173 -30 46 -22 44 -23 87 57 24 45 24 46 5 59 -40 29 -146 54 -230 54 -71 0
-90 -4 -136 -28z"/>
<path d="M1050 1090 l0 -301 87 3 86 3 3 298 3 297 -90 0 -89 0 0 -300z"/>
<path d="M5723 965 c-33 -33 -35 -39 -30 -82 7 -64 40 -93 106 -93 38 0 54 5
74 25 69 70 22 185 -75 185 -32 0 -47 -7 -75 -35z"/>
</g>
</svg>
