<?xml version="1.0" standalone="no"?>
<!DOCTYPE svg PUBLIC "-//W3C//DTD SVG 20010904//EN"
 "http://www.w3.org/TR/2001/REC-SVG-20010904/DTD/svg10.dtd">
<svg version="1.0" xmlns="http://www.w3.org/2000/svg"
 width="811.000000pt" height="229.000000pt" viewBox="0 0 811.000000 229.000000"
 preserveAspectRatio="xMidYMid meet">

<g transform="translate(0.000000,229.000000) scale(0.100000,-0.100000)"
fill="#000000" stroke="none">
<path d="M6497 2073 c-3 -5 -12 -46 -21 -93 -9 -47 -32 -170 -51 -275 -20
-104 -47 -244 -60 -310 -14 -66 -49 -250 -80 -410 -31 -159 -60 -310 -65 -335
-5 -25 -5 -48 -1 -53 4 -4 88 -6 186 -5 l179 3 12 55 c7 30 22 107 33 170 12
63 67 360 122 660 55 300 101 556 102 570 l2 25 -177 3 c-97 1 -179 -1 -181
-5z"/>
<path d="M510 1984 c-6 -14 -10 -32 -10 -41 0 -8 -13 -83 -29 -166 -17 -84
-55 -289 -86 -457 -31 -168 -64 -345 -75 -395 -27 -126 -50 -254 -53 -295 l-2
-35 188 -3 c103 -1 187 -1 187 1 0 4 55 307 87 480 9 48 21 86 26 84 11 -3 70
-103 212 -357 23 -41 84 -148 135 -237 l94 -163 170 -1 c195 -1 269 1 275 7 2
2 -32 64 -76 136 -44 73 -144 242 -223 376 -114 197 -139 246 -129 258 6 8 18
14 26 14 26 0 115 51 159 92 104 95 159 225 158 373 0 78 -4 98 -28 147 -31
63 -92 125 -155 157 -90 47 -134 51 -498 51 l-343 0 -10 -26z m550 -304 c60
-17 73 -31 77 -91 8 -111 -55 -157 -228 -166 -92 -5 -109 -4 -114 10 -9 23 32
239 47 248 18 12 176 11 218 -1z"/>
<path d="M3182 1596 c-195 -48 -369 -215 -437 -420 -68 -206 -26 -423 100
-516 73 -54 127 -72 235 -78 116 -6 189 8 275 53 64 34 65 34 65 12 0 -13 -13
-44 -29 -69 -55 -87 -136 -128 -253 -128 -83 0 -177 29 -230 71 -20 16 -43 29
-50 29 -12 0 -79 -54 -235 -187 -29 -24 -53 -48 -53 -53 0 -5 33 -29 73 -54
102 -64 195 -87 374 -93 251 -9 406 27 538 125 76 57 126 118 170 207 45 91
60 153 135 550 33 182 69 373 79 425 10 52 15 98 11 103 -3 4 -87 6 -186 5
-170 -3 -179 -4 -182 -23 -7 -37 -19 -37 -65 -2 -73 55 -210 73 -335 43z m271
-332 c63 -46 76 -151 30 -243 -92 -180 -366 -190 -390 -13 -17 126 85 260 216
282 50 8 113 -3 144 -26z"/>
<path d="M7330 1604 c-93 -16 -174 -41 -234 -71 -80 -40 -176 -110 -175 -127
0 -13 184 -166 199 -166 5 0 33 15 62 34 70 44 115 58 188 57 80 0 120 -23
120 -67 0 -32 0 -32 -62 -39 -205 -21 -360 -56 -455 -102 -69 -34 -144 -104
-174 -163 -27 -54 -38 -178 -20 -232 16 -47 75 -114 122 -138 52 -27 147 -39
238 -29 97 9 125 16 185 46 50 25 76 25 76 -2 0 -13 23 -15 165 -15 91 0 165
1 165 3 1 3 56 324 84 490 44 255 32 345 -58 432 -71 69 -127 87 -281 91 -66
1 -131 1 -145 -2z m113 -655 c-3 -64 -117 -129 -226 -129 -39 0 -77 27 -77 55
0 21 38 54 88 77 36 16 178 39 207 33 6 -1 9 -17 8 -36z"/>
<path d="M4133 1578 c-14 -17 -66 -285 -58 -298 4 -6 78 -10 186 -10 98 0 179
-4 179 -8 0 -5 -51 -55 -112 -112 -62 -58 -165 -156 -229 -220 l-117 -115 -16
-75 c-9 -41 -17 -91 -18 -110 l-3 -35 457 -3 457 -2 7 37 c4 21 17 92 30 158
17 91 20 121 11 127 -7 4 -87 8 -179 8 -93 0 -168 3 -168 6 0 3 96 99 213 214
l212 208 23 112 c12 61 20 115 17 120 -2 4 -202 8 -443 9 -350 2 -441 -1 -449
-11z"/>
<path d="M5176 1576 c-7 -6 -19 -45 -26 -86 -6 -41 -32 -174 -57 -295 -37
-177 -46 -241 -47 -330 -1 -127 13 -164 83 -228 55 -50 102 -68 193 -74 100
-7 186 10 268 53 35 19 68 34 72 34 4 0 6 -12 5 -27 l-2 -28 181 -3 181 -2 57
292 c122 624 133 683 126 691 -4 4 -87 6 -186 5 l-179 -3 -8 -40 c-64 -334
-98 -497 -111 -526 -19 -46 -70 -98 -113 -115 -52 -22 -117 -18 -150 10 -24
21 -27 30 -26 78 1 30 13 111 27 179 35 174 77 411 74 414 -2 1 -81 5 -176 7
-114 3 -178 1 -186 -6z"/>
<path d="M1637 1548 c-34 -192 -60 -336 -82 -453 -16 -82 -28 -179 -29 -235
-1 -83 2 -102 25 -151 44 -93 122 -138 254 -146 96 -6 188 13 275 57 33 16 62
30 64 30 3 0 4 -12 3 -27 l-2 -28 180 0 180 0 11 55 c6 30 23 118 37 195 49
258 108 569 122 644 8 40 15 77 15 82 0 5 -83 9 -185 9 -102 0 -185 -2 -185
-4 0 -2 -7 -37 -15 -77 -8 -41 -28 -148 -45 -239 -44 -234 -56 -273 -98 -316
-45 -47 -88 -64 -157 -64 -52 0 -57 2 -75 33 -26 42 -25 56 11 249 43 232 69
380 69 401 0 16 -15 17 -184 17 l-183 0 -6 -32z"/>
</g>
</svg>
